<svg xmlns="http://www.w3.org/2000/svg" viewBox="0 0 410 404"><defs><linearGradient id="a" x1="0" y1="0" x2="1" y2="1"><stop offset="0" stop-color="#41d1ff"/><stop offset="1" stop-color="#bd34fe"/></linearGradient><linearGradient id="b" x1="0" y1="0" x2="1" y2="1"><stop offset="0" stop-color="#ffea83"/><stop offset="0.083" stop-color="#ffdd35"/><stop offset="1" stop-color="#ffa800"/></linearGradient></defs><path fill="url(#a)" d="M399.641 59.525 215.5 388.693c-5.934 10.587-21.147 10.636-27.152.086L9.481 59.555c-6.192-10.886 1.9-24.43 14.108-23.934l179.602 7.2c0.436.017.872.017 1.308 0l180.272-7.173c12.208-.486 20.3 13.05 14.102 23.94Z"/><path fill="url(#b)" d="M292.965.322 156.789 52.923c-2.287.885-3.746 3.026-3.746 5.471v192.93c0 4.011 4.06 6.73 7.777 5.304l45.492-17.688c3.226-1.256 6.76 1.096 6.76 4.576v91.402c0 3.472 3.523 5.824 6.748 4.582l28.801-11.303c2.289-.9 3.752-3.05 3.752-5.5V43.664c0-4.017-4.078-6.737-7.795-5.294l-45.472 17.673c-3.226 1.252-6.748-1.102-6.748-4.582V9.206c0-3.48 3.541-5.83 6.766-4.576L292.98 16.119c3.713 1.425 7.764-1.297 7.764-5.306V5.785C300.744 1.774 296.705-.945 292.965.322Z"/></svg>
